<svg fill="none" height="14" viewBox="0 0 14 14" width="14" xmlns="http://www.w3.org/2000/svg" xmlns:xlink="http://www.w3.org/1999/xlink"><clipPath id="a"><path d="m0 0h14v14h-14z"/></clipPath><g clip-path="url(#a)" stroke="#000" stroke-linecap="round" stroke-linejoin="round"><path d="m3.81776 8.5h6.36444c.2169 0 .4249.10536.5783.29289.1533.18754.2395.44189.2395.70711v4h-8v-4c0-.26522.08616-.51957.23952-.70711.15336-.18753.36135-.29289.57824-.29289z"/><path d="m3 9.49992h-1.5c-.26522 0-.51957-.10535-.707107-.29289-.187536-.18754-.292893-.44189-.292893-.70711v-2.99992c0-.26522.105357-.51957.292893-.70711.187537-.18753.441887-.29289.707107-.29289h11c.2652 0 .5196.10536.7071.29289.1875.18754.2929.44189.2929.70711v2.99992c0 .26522-.1054.51957-.2929.70711s-.4419.29289-.7071.29289h-1.5"/><path d="m11 .5h-8v4h8z"/><path d="m5 11h4"/></g></svg>