<?xml version="1.0" standalone="no"?>
<!DOCTYPE svg PUBLIC "-//W3C//DTD SVG 20010904//EN" "http://www.w3.org/TR/2001/REC-SVG-20010904/DTD/svg10.dtd">
<svg version="1.0" xmlns="http://www.w3.org/2000/svg" width="465.000000pt" height="166.000000pt"
    viewBox="0 0 465.000000 166.000000" preserveAspectRatio="xMidYMid meet">

    <g transform="translate(0.000000,166.000000) scale(0.100000,-0.100000)" fill="#0f3da6" stroke="none">
        <path d="M4035 1595 c-280 -24 -631 -53 -780 -65 -148 -12 -443 -36 -655 -53
l-385 -32 -3 -102 c-3 -98 -2 -103 18 -103 18 0 20 6 20 80 0 44 3 80 8 80 4
0 365 29 802 65 437 36 948 78 1135 93 l340 27 3 -744 c1 -409 1 -745 0 -746
-2 -1 -127 9 -278 22 -151 13 -298 21 -327 18 -28 -3 -53 -1 -55 4 -2 5 -364
39 -806 75 -442 36 -807 68 -813 71 -5 4 -9 42 -9 86 0 73 -2 79 -20 79 -20 0
-21 -5 -18 -107 l3 -108 755 -62 c415 -33 818 -66 895 -72 226 -17 616 -50
673 -56 l52 -6 0 800 0 801 -22 -1 c-13 -1 -252 -21 -533 -44z" />
        <path d="M3959 1156 c-149 -40 -239 -159 -239 -316 0 -169 115 -301 281 -325
53 -8 147 9 200 35 138 71 205 253 149 404 -39 104 -131 183 -238 205 -65 14
-94 13 -153 -3z m157 -147 c111 -34 140 -229 46 -313 -57 -50 -181 -50 -236 1
-87 80 -70 252 29 306 48 26 90 27 161 6z" />
        <path d="M90 839 l0 -322 173 5 c143 5 181 9 228 27 75 29 132 80 166 149 24
48 28 69 28 137 0 94 -24 158 -83 218 -78 82 -169 107 -384 107 l-128 0 0
-321z m343 167 c105 -43 139 -197 64 -283 -44 -50 -82 -63 -182 -63 l-85 0 0
180 0 180 85 0 c50 0 99 -6 118 -14z" />
        <path d="M800 840 l0 -320 70 0 70 0 0 320 0 320 -70 0 -70 0 0 -320z" />
        <path d="M1245 1128 c-7 -18 -65 -163 -128 -321 l-115 -288 81 3 81 3 15 48
15 47 132 0 132 0 18 -50 18 -50 78 0 78 0 -13 33 c-7 17 -65 161 -128 319
l-114 288 -68 0 c-67 0 -68 0 -82 -32z m124 -266 l40 -112 -79 0 c-44 0 -80 3
-80 6 0 10 75 223 77 220 1 -1 20 -52 42 -114z" />
        <path d="M1710 840 l0 -320 225 0 225 0 0 70 0 70 -150 0 -150 0 0 250 0 250
-75 0 -75 0 0 -320z" />
        <path d="M2490 840 l0 -320 70 0 70 0 0 103 c1 98 2 103 30 137 18 20 33 30
38 25 5 -6 50 -67 101 -137 l93 -128 84 0 84 0 -128 173 c-71 94 -132 178
-136 184 -4 8 40 61 125 148 l132 135 -84 0 -84 0 -120 -120 c-66 -66 -123
-120 -127 -120 -5 0 -8 54 -8 120 l0 120 -70 0 -70 0 0 -320z" />
        <path d="M3160 841 l0 -321 70 0 69 0 3 103 3 102 45 0 44 0 59 -102 59 -103
80 0 80 0 -20 33 c-11 17 -43 70 -71 117 l-51 85 22 15 c76 50 110 133 88 218
-16 66 -54 110 -119 140 -49 23 -71 26 -208 30 l-153 5 0 -322z m294 168 c34
-16 50 -63 33 -97 -17 -37 -52 -52 -124 -52 l-63 0 0 73 c0 41 3 77 7 80 11
11 120 8 147 -4z" />
    </g>
</svg>