<svg id="visual" viewBox="0 0 900 600" width="900" height="600" xmlns="http://www.w3.org/2000/svg" xmlns:xlink="http://www.w3.org/1999/xlink" version="1.1"><g transform="translate(453.50480509111964 247.43824483633094)"><path d="M158.4 -166.2C211.4 -144.3 264.8 -100.2 279.7 -45C294.6 10.3 271.2 76.6 239.5 144.7C207.9 212.8 168.1 282.6 106.9 313.3C45.8 343.9 -36.6 335.5 -94.6 297.9C-152.7 260.3 -186.3 193.7 -220.8 129.6C-255.3 65.5 -290.6 4 -291.3 -61.6C-291.9 -127.2 -257.8 -196.9 -203.5 -218.6C-149.1 -240.2 -74.6 -213.9 -10.9 -200.8C52.7 -187.8 105.4 -188.1 158.4 -166.2" fill="#ffeaa9"></path></g></svg>