<svg viewBox="0 0 400 300" xmlns="http://www.w3.org/2000/svg"><path d="m332.76 230.24h-265.52a.5.5 0 0 1 0-1h265.52a.5.5 0 0 1 0 1z" fill="#d1d3d4"/><path d="m130.81 247.05-1 8.27s7.76.38 7.89 0 2.67-10.72 2.67-10.72z" fill="#fff"/><path d="m135.38 256c-1.22 0-3-.05-5.61-.18a.5.5 0 0 1 -.36-.18.51.51 0 0 1 -.12-.38l1-8.27a.53.53 0 0 1 .38-.43l9.54-2.44a.48.48 0 0 1 .47.13.49.49 0 0 1 .14.47c-.26 1.06-2.56 10.37-2.68 10.76s-.14.52-2.76.52zm-5-1.15c3 .13 6.07.19 6.92.08.29-1.12 1.49-6 2.4-9.64l-8.41 2.16z" fill="#231f20"/><path d="m88.83 234.47-4.42 7.06s6.87 3.63 7.15 3.34 7-8.58 7-8.58z" fill="#fff"/><path d="m91.56 245.38c-.56 0-2.09-.61-7.38-3.41a.46.46 0 0 1 -.25-.31.45.45 0 0 1 .06-.39l4.42-7.07a.51.51 0 0 1 .52-.22l9.68 1.82a.5.5 0 0 1 .3.81c-.69.85-6.71 8.31-7 8.6a.4.4 0 0 1 -.35.17zm-6.44-4c2.62 1.37 5.42 2.75 6.23 3 .74-.9 3.87-4.77 6.25-7.72l-8.52-1.66z" fill="#231f20"/><path d="m109.69 142.19c1.91 1.15 18.8 40.46 21 44.1s-2.07 62.55-2.07 62.55h12.38s13.74-47.28 13.74-59.4-16-51.74-16-51.74l-29 1" fill="#231f20"/><path d="m141 249.34h-12.34a.5.5 0 0 1 -.5-.54c1.73-23.62 3.73-59.69 2.15-62.25-.91-1.47-4.08-8.48-7.76-16.6-5.06-11.16-12-26.45-13.13-27.34a.5.5 0 0 1 -.16-.68.51.51 0 0 1 .69-.16c1.09.66 5 9.1 13.51 27.77 3.66 8.09 6.82 15.07 7.69 16.48 2.21 3.58-1.37 54.21-2 62.32h11.42c1.27-4.4 13.62-47.54 13.62-58.9s-14.3-47.44-15.82-51.23l-28.66 1a.5.5 0 1 1 0-1l29-1a.49.49 0 0 1 .48.31c.66 1.62 16.07 39.84 16.07 51.92s-13.26 57.61-13.79 59.56a.51.51 0 0 1 -.47.34z" fill="#231f20"/><path d="m105.21 145.34 1.79 41.34-21.74 48.32 10.82 6.57c.55 1.42 28.39-38.63 31.5-50.82 2.15-8.39.26-48.57.26-48.57z" fill="#231f20"/><path d="m96.15 242.11a.54.54 0 0 1 -.32-.11l-10.83-6.56a.5.5 0 0 1 -.2-.63l21.65-48.23-1.74-41.22a.51.51 0 0 1 .43-.51l22.63-3.15a.5.5 0 0 1 .57.47c.08 1.64 1.86 40.35-.28 48.72-3 11.69-29.76 51.1-31.89 51.22zm-10.26-7.29 10.25 6.18c3-2.57 28-38.79 31-50.39 2-7.7.48-43 .27-47.88l-21.64 3 1.72 40.88a.45.45 0 0 1 0 .23z" fill="#231f20"/><path d="m129.79 255.32-1.14 6.36s20.48 1.27 19.85 0-10.82-6.36-10.82-6.36z" fill="#231f20"/><path d="m142.9 262.75c-4 0-9.42-.27-14.28-.57a.5.5 0 0 1 -.46-.59l1.14-6.36a.5.5 0 0 1 .49-.41h7.89a.43.43 0 0 1 .22.06c2.43 1.21 10.38 5.26 11 6.58a.62.62 0 0 1 0 .62c-.32.49-2.68.67-6 .67zm-13.66-1.53c7.85.47 16.38.73 18.49.35a82.35 82.35 0 0 0 -10.17-5.75h-7.35z" fill="#231f20"/><path d="m84.41 241.53-.6.71c-1.08 1.3-3.2 4-2.63 4.69.77.89 17.75 10.95 17.34 10.31s-7-12.37-7-12.37" fill="#231f20"/><path d="m98.59 257.75c-.47 0-1.91-.71-8.82-4.82-2-1.16-8.4-5-9-5.67-.28-.32-.92-1.07 2.62-5.34.36-.44.61-.72.61-.72a.49.49 0 0 1 .7 0 .48.48 0 0 1 0 .7s-.24.27-.59.69c-2.2 2.66-2.66 3.85-2.6 4.1.61.64 11.78 7.35 15.72 9.49-1.8-3.16-6-10.64-6.19-11a.49.49 0 0 1 .2-.67.48.48 0 0 1 .67.19c2.27 4.05 6.63 11.85 7 12.34a.54.54 0 0 1 -.12.7.37.37 0 0 1 -.2.01z" fill="#231f20"/><path d="m278.66 152.17h33.4v52.4h-33.4z" fill="#e6e7e8" transform="matrix(.99998134 -.00610861 .00610861 .99998134 -1.09 1.82)"/><path d="m278.82 205.13a.48.48 0 0 1 -.46-.46l-.36-52.39a.45.45 0 0 1 .46-.46l33.39-.21a.41.41 0 0 1 .33.13.49.49 0 0 1 .13.33l.32 52.39a.45.45 0 0 1 -.45.46l-33.4.21zm.14-52.4.31 51.48 32.49-.2-.32-51.48z" fill="#231f20"/><path d="m227.19 165.96h47.2v40.53h-47.2z" fill="#68e1fd" transform="matrix(.98934869 -.14556503 .14556503 .98934869 -24.45 38.51)"/><path d="m230.39 210.16a.45.45 0 0 1 -.45-.39l-5.9-40.1a.43.43 0 0 1 .08-.33.42.42 0 0 1 .3-.18l46.69-6.88a.46.46 0 0 1 .52.39l5.91 40.1a.52.52 0 0 1 -.09.34.49.49 0 0 1 -.3.18l-46.69 6.87zm-5.39-40.16 5.77 39.2 45.78-6.74-5.76-39.2z" fill="#231f20"/><path d="m222.52 139.94h37.01v25.13h-37.01z" fill="#e6e7e8" transform="matrix(.97868856 -.2053502 .2053502 .97868856 -26.17 52.73)"/><path d="m225.5 169.06a.47.47 0 0 1 -.45-.37l-5.16-24.59a.45.45 0 0 1 .07-.34.44.44 0 0 1 .28-.2l36.22-7.6a.49.49 0 0 1 .35.07.42.42 0 0 1 .19.29l5.16 24.59a.45.45 0 0 1 -.35.54l-36.22 7.6zm-4.62-24.7 5 23.7 35.32-7.41-5-23.7z" fill="#231f20"/><path d="m262.82 128.86h27.6v20.1h-27.6z" fill="#231f20" transform="matrix(.98873027 -.14970791 .14970791 .98873027 -17.68 42.99)"/><path d="m264.48 151.37a.42.42 0 0 1 -.27-.09.46.46 0 0 1 -.19-.3l-3-19.87a.45.45 0 0 1 .38-.52l27.28-4.13a.45.45 0 0 1 .52.38l3 19.87a.45.45 0 0 1 -.08.34.42.42 0 0 1 -.3.18l-27.29 4.14zm-2.48-19.94 2.87 19 26.38-4-2.87-19z" fill="#231f20"/><path d="m236.52 120.82h27.8v12.8h-27.8z" fill="#68e1fd" transform="matrix(.89547883 -.44510411 .44510411 .89547883 -30.45 124.74)"/><path d="m240.82 139.59a.46.46 0 0 1 -.41-.25l-5.69-11.47a.45.45 0 0 1 0-.34.51.51 0 0 1 .23-.27l24.9-12.37a.47.47 0 0 1 .35 0 .45.45 0 0 1 .26.23l5.7 11.46a.47.47 0 0 1 0 .35.45.45 0 0 1 -.23.26l-24.93 12.35a.54.54 0 0 1 -.18.05zm-5.08-11.71 5.26 10.64 24.07-12-5.29-10.65z" fill="#231f20"/><path d="m296.46 132.24h13.7v15.7h-13.7z" fill="#fff" transform="matrix(.93752511 -.34791762 .34791762 .93752511 -29.79 114.26)"/><path d="m299.62 150.28a.41.41 0 0 1 -.19 0 .45.45 0 0 1 -.24-.25l-5.46-14.72a.46.46 0 0 1 .27-.59l12.84-4.76a.46.46 0 0 1 .59.27l5.46 14.71a.45.45 0 0 1 -.27.59l-12.84 4.77zm-4.88-14.9 5.15 13.86 12-4.45-5.14-13.86z" fill="#231f20"/><path d="m258.09 148.05h14.8v14.8h-14.8z" fill="#e6e7e8" transform="matrix(.99171606 -.12844943 .12844943 .99171606 -17.77 35.39)"/><path d="m259.1 164.19a.46.46 0 0 1 -.45-.4l-1.9-14.67a.46.46 0 0 1 .09-.34.4.4 0 0 1 .3-.17l14.68-1.91a.46.46 0 0 1 .51.4l1.9 14.68a.45.45 0 0 1 -.39.51l-14.68 1.9zm-1.39-14.74 1.79 13.77 13.77-1.78-1.79-13.77z" fill="#231f20"/><circle cx="232.33" cy="254.92" fill="#231f20" r="7.63"/><path d="m232.33 263.05a8.13 8.13 0 1 1 8.13-8.13 8.14 8.14 0 0 1 -8.13 8.13zm0-15.26a7.13 7.13 0 1 0 7.13 7.13 7.14 7.14 0 0 0 -7.13-7.13z" fill="#231f20"/><path d="m230.64 243.71v9.85c0 2.55 2.92 2.7 4.25 0s4.17-10.19 4.17-10.19z" fill="#e6e7e8"/><path d="m232.29 256a1.86 1.86 0 0 1 -.48 0 2.23 2.23 0 0 1 -1.62-2.37v-9.85a.46.46 0 0 1 .43-.46l8.43-.33a.46.46 0 0 1 .39.18.44.44 0 0 1 .05.43c-.11.31-2.87 7.55-4.19 10.24a3.54 3.54 0 0 1 -3.01 2.16zm-1.19-11.83v9.41c0 .81.33 1.34.92 1.48s1.77-.29 2.46-1.68c1.07-2.18 3.19-7.63 3.91-9.5z" fill="#231f20"/><circle cx="296.42" cy="254.92" fill="#231f20" r="7.63"/><path d="m296.42 263.05a8.13 8.13 0 1 1 8.14-8.13 8.14 8.14 0 0 1 -8.14 8.13zm0-15.26a7.13 7.13 0 1 0 7.14 7.13 7.14 7.14 0 0 0 -7.14-7.13z" fill="#231f20"/><path d="m294.74 243.71v9.85c0 2.55 2.92 2.7 4.24 0s4.18-10.19 4.18-10.19z" fill="#e6e7e8"/><path d="m296.38 256a1.83 1.83 0 0 1 -.47 0 2.23 2.23 0 0 1 -1.63-2.37v-9.85a.47.47 0 0 1 .44-.46l8.42-.33a.45.45 0 0 1 .39.18.47.47 0 0 1 .06.43c-.12.31-2.88 7.55-4.2 10.24a3.52 3.52 0 0 1 -3.01 2.16zm-1.18-11.83v9.41c0 .81.33 1.34.91 1.48s1.78-.29 2.46-1.68c1.08-2.18 3.19-7.63 3.92-9.5z" fill="#231f20"/><path d="m321.9 163-118.12-6.24a.51.51 0 0 1 -.48-.53.5.5 0 0 1 .53-.47l118.09 6.24a.51.51 0 0 1 .48.53.5.5 0 0 1 -.5.47z" fill="#231f20"/><path d="m211.86 177.56a.49.49 0 0 1 -.5-.49.51.51 0 0 1 .49-.51l109.09-1.07a.5.5 0 0 1 0 1l-109.09 1.07z" fill="#231f20"/><path d="m222.93 201a.5.5 0 0 1 0-1l96.05-7a.5.5 0 1 1 .07 1l-96 7z" fill="#231f20"/><path d="m231 216.41a8 8 0 0 1 -7.44-5.08c-14.72-37.91-24.66-62.72-26.07-65-1.18-.87-8.21-2.66-14.17-3.83a1.5 1.5 0 1 1 .58-2.94c4.14.81 14 2.9 15.77 4.7.43.43 1.74 1.73 26.69 66a5 5 0 0 0 5 3.16l80-6.8a4.75 4.75 0 0 0 4.3-4.16l4.75-40.11a1.5 1.5 0 0 1 1.66-1.32 1.52 1.52 0 0 1 1.32 1.67l-4.75 40.11a7.77 7.77 0 0 1 -7 6.8l-80 6.79z" fill="#231f20"/><path d="m186.57 138-1.91 6.78-15.61-4.23a2.89 2.89 0 0 1 -2-3.59 2.88 2.88 0 0 1 3.32-2z" fill="#fff"/><g fill="#231f20"><path d="m184.66 145.31h-.13l-15.61-4.23a3.38 3.38 0 0 1 -2.07-1.61 3.33 3.33 0 0 1 -.3-2.6 3.37 3.37 0 0 1 3.89-2.39l16.22 3.07a.49.49 0 0 1 .33.23.56.56 0 0 1 .06.4l-1.91 6.82a.49.49 0 0 1 -.48.31zm-14.86-9.92a2.4 2.4 0 0 0 -.62 4.71l15.13 4.1 1.63-5.78-15.69-3a2.3 2.3 0 0 0 -.45-.03z"/><path d="m238.81 213.91a.49.49 0 0 1 -.47-.35l-18.23-56.19a.5.5 0 0 1 .32-.63.49.49 0 0 1 .63.32l18.23 56.19a.5.5 0 0 1 -.32.63.45.45 0 0 1 -.16.03z"/><path d="m246.88 213.47a.5.5 0 0 1 -.48-.37l-15.4-55.24a.5.5 0 0 1 .35-.62.51.51 0 0 1 .62.35l15.44 55.24a.5.5 0 0 1 -.35.62z"/><path d="m254.68 212.79a.5.5 0 0 1 -.49-.38l-13.37-54a.48.48 0 0 1 .36-.6.5.5 0 0 1 .61.36l13.37 54a.49.49 0 0 1 -.36.6z"/><path d="m261.91 212.06a.49.49 0 0 1 -.49-.41l-10.25-52.76a.5.5 0 1 1 1-.19l10.24 52.76a.51.51 0 0 1 -.4.59z"/><path d="m269.79 211.19a.5.5 0 0 1 -.49-.42l-8.77-51.25a.5.5 0 0 1 .41-.58.49.49 0 0 1 .58.41l8.76 51.25a.51.51 0 0 1 -.41.58z"/><path d="m277.73 210.24a.5.5 0 0 1 -.5-.43l-6.77-49.93a.5.5 0 0 1 .42-.57.51.51 0 0 1 .57.43l6.77 49.93a.5.5 0 0 1 -.43.57z"/><path d="m285.39 209.27a.52.52 0 0 1 -.5-.46l-4.34-48.42a.5.5 0 0 1 1-.09l4.34 48.42a.51.51 0 0 1 -.45.55z"/><path d="m293.58 208.17a.51.51 0 0 1 -.5-.47l-3.08-46.82a.5.5 0 0 1 .47-.54.52.52 0 0 1 .53.47l3.07 46.82a.49.49 0 0 1 -.46.53z"/><path d="m301.37 209.27a.5.5 0 0 1 -.5-.49l-1.13-47.41a.5.5 0 0 1 .49-.51.51.51 0 0 1 .51.49l1.13 47.41a.52.52 0 0 1 -.49.51z"/><path d="m309.94 207.89a.5.5 0 0 1 -.5-.5v-45.52a.5.5 0 0 1 .5-.5.5.5 0 0 1 .5.5v45.52a.5.5 0 0 1 -.5.5z"/><path d="m306.06 245.6h-82a4.12 4.12 0 0 1 -3.7-5.95l12.33-24.93a1.5 1.5 0 1 1 2.69 1.33l-12.32 24.95a1.12 1.12 0 0 0 1 1.62h82a1.5 1.5 0 0 1 0 3z"/></g><path d="m127.59 69.36a2.89 2.89 0 0 1 -3.76-1.4 2 2 0 0 1 -.28-1.81 1.09 1.09 0 0 1 1.55-.57 22.29 22.29 0 0 1 -3.43-5.75 7.63 7.63 0 0 1 .41-6.49c-1.63-.86-3.37-1.83-4.18-3.49a5.28 5.28 0 0 1 1.48-6.07 7.76 7.76 0 0 1 6.33-1.51 4 4 0 0 0 -2.09-2.47c2.45-2.34 6-3.1 9.39-3.23 5.62-.21 11.52 1.23 15.6 5.09a13.75 13.75 0 0 1 4.22 11.6c-.83 5.66-4.87 3.08-8.69 5.2-1.89 1-3.18 2.94-4.8 4.33-2.73 2.34-6.24 3-9 5a11.64 11.64 0 0 1 -2.75 1.57z" fill="#fff"/><path d="m126.34 70.09a3.41 3.41 0 0 1 -2.94-1.87 2.55 2.55 0 0 1 -.32-2.26 1.74 1.74 0 0 1 1-.93 20 20 0 0 1 -2.87-5 8.17 8.17 0 0 1 .2-6.45 8.73 8.73 0 0 1 -4-3.47 5.79 5.79 0 0 1 1.61-6.67 8 8 0 0 1 5.86-1.73 3.51 3.51 0 0 0 -1.51-1.42.51.51 0 0 1 -.28-.37.49.49 0 0 1 .15-.44c2.17-2.08 5.44-3.21 9.71-3.37 6.49-.23 12.16 1.62 16 5.23a14.28 14.28 0 0 1 4.37 12c-.59 4-2.79 4.29-5.13 4.57a9.91 9.91 0 0 0 -3.81 1 13.11 13.11 0 0 0 -3 2.58 23 23 0 0 1 -1.73 1.69 20.3 20.3 0 0 1 -5.12 2.94 22.93 22.93 0 0 0 -3.87 2.06 12 12 0 0 1 -2.92 1.66 4.36 4.36 0 0 1 -1.4.25zm-1.75-4.16a.32.32 0 0 0 -.14 0 .7.7 0 0 0 -.46.39 1.58 1.58 0 0 0 .24 1.36 2.4 2.4 0 0 0 3.17 1.19 11.16 11.16 0 0 0 2.66-1.53 23.56 23.56 0 0 1 4-2.16 19.8 19.8 0 0 0 4.94-2.77 22.89 22.89 0 0 0 1.66-1.62 14 14 0 0 1 3.24-2.79 10.68 10.68 0 0 1 4.17-1.12c2.28-.27 3.78-.45 4.26-3.72a13.24 13.24 0 0 0 -4.07-11.16c-4.86-4.61-11.63-5.08-15.23-5s-6.58 1-8.56 2.65a4.51 4.51 0 0 1 1.72 2.41.48.48 0 0 1 -.11.47.48.48 0 0 1 -.45.16 7.26 7.26 0 0 0 -5.92 1.4 4.75 4.75 0 0 0 -1.36 5.47c.71 1.46 2.22 2.34 4 3.27a.52.52 0 0 1 .25.31.56.56 0 0 1 -.06.4 7.1 7.1 0 0 0 -.37 6 22.29 22.29 0 0 0 3.36 5.62.5.5 0 0 1 -.7.7.32.32 0 0 0 -.22.07z" fill="#231f20"/><path d="m147.62 59.23s2.69 6 1.77 7-3.27-.15-3.27-.15" fill="#fff"/><path d="m148.25 67.15a6 6 0 0 1 -2.35-.61.5.5 0 1 1 .44-.9c.65.33 2.17.81 2.68.26.35-.45-.51-3.47-1.85-6.47a.5.5 0 1 1 .91-.41c.85 1.9 2.71 6.44 1.67 7.56a1.94 1.94 0 0 1 -1.5.57z" fill="#231f20"/><path d="m148 51.94c2 2.24.66 6.06.22 8.62q-.93 5.4-2.11 10.74c-.5 2.26-6.42 1.34-7.35.48l-.7 7.64s-2.07 3.94-6.48 1-5-6.23-5-6.23l2.11-10.35s3.9.68 7-3.59 4.17-11.44 4.17-11.44 6.26.94 8.14 3.13z" fill="#fff"/><path d="m134.73 82a6.15 6.15 0 0 1 -3.39-1.21c-4.52-3.08-5.2-6.41-5.23-6.55a.41.41 0 0 1 0-.19l2.11-10.35a.49.49 0 0 1 .57-.39c.15 0 3.65.55 6.49-3.4 3-4.12 4.06-11.14 4.07-11.21a.5.5 0 0 1 .2-.33.49.49 0 0 1 .37-.09c.27 0 6.46 1 8.49 3.34 1.8 2 1.14 5.16.61 7.66-.1.49-.2.95-.28 1.38-.62 3.58-1.33 7.2-2.11 10.76a2.16 2.16 0 0 1 -1.63 1.58 10.34 10.34 0 0 1 -5.76-.37l-.63 6.88a.6.6 0 0 1 -.06.19 4.76 4.76 0 0 1 -2.82 2.22 4.07 4.07 0 0 1 -1 .08zm-7.61-7.86c.13.51 1 3.26 4.78 5.82a4.49 4.49 0 0 0 3.57 1 3.69 3.69 0 0 0 2.14-1.64l.69-7.52a.51.51 0 0 1 .84-.33 8.82 8.82 0 0 0 5.55.59c.57-.18.89-.45 1-.81.78-3.54 1.49-7.14 2.11-10.72.07-.43.18-.91.28-1.41.49-2.28 1.09-5.12-.38-6.79s-5.92-2.65-7.4-2.93c-.31 1.74-1.5 7.44-4.17 11.15s-5.78 3.88-7 3.84z" fill="#231f20"/><path d="m146.5 68.6s-3.07 1.26-4.08-1.87" fill="#fff"/><path d="m145.13 69.35a3.24 3.24 0 0 1 -1.42-.3 3.4 3.4 0 0 1 -1.77-2.17.5.5 0 0 1 1-.31 2.43 2.43 0 0 0 1.22 1.57 3.16 3.16 0 0 0 2.2 0 .5.5 0 1 1 .37.93 4.74 4.74 0 0 1 -1.6.28z" fill="#231f20"/><path d="m139 59.61a4.88 4.88 0 0 0 -.6-2.64 7.13 7.13 0 0 0 -1-1.85 2.41 2.41 0 0 0 -1.84-.91 2.22 2.22 0 0 0 -1.6.89 4.19 4.19 0 0 0 -.75 1.71 7.86 7.86 0 0 0 2.44 7.44l-.17-.25" fill="#fff"/><path d="m135.59 64.75a.46.46 0 0 1 -.33-.13 8.36 8.36 0 0 1 -2.59-7.92 4.53 4.53 0 0 1 .84-1.92 2.68 2.68 0 0 1 2-1.07 2.85 2.85 0 0 1 2.24 1.09 7.78 7.78 0 0 1 1.11 2 5.37 5.37 0 0 1 .64 2.91.49.49 0 0 1 -.57.42.5.5 0 0 1 -.42-.56 4.66 4.66 0 0 0 -.56-2.37 6.69 6.69 0 0 0 -1-1.72 1.93 1.93 0 0 0 -1.44-.74 1.73 1.73 0 0 0 -1.23.7 3.72 3.72 0 0 0 -.65 1.51 7.34 7.34 0 0 0 1.9 6.59.47.47 0 0 1 .3.22l.17.24a.52.52 0 0 1 -.09.65.48.48 0 0 1 -.32.1z" fill="#231f20"/><path d="m138.8 71.78a9.76 9.76 0 0 1 -4-3.79s-.7 5.51 3.74 7.88z" fill="#231f20"/><path d="m138.55 76.37a.53.53 0 0 1 -.24-.06c-4.68-2.5-4-8.33-4-8.38a.51.51 0 0 1 .42-.44.52.52 0 0 1 .53.29 9.3 9.3 0 0 0 3.74 3.55.51.51 0 0 1 .28.48l-.25 4.09a.49.49 0 0 1 -.26.4.42.42 0 0 1 -.22.07zm-3.25-6.72a7.05 7.05 0 0 0 2.8 5.35l.18-2.94a11.54 11.54 0 0 1 -2.98-2.41z" fill="#231f20"/><ellipse cx="145.99" cy="56.4" fill="#231f20" rx="1.3" ry=".51" transform="matrix(.32523809 -.94563216 .94563216 .32523809 45.17 176.1)"/><path d="m120.41 73.68s15.59 2.62 18.59 11.62-2 38 0 40.69 7 20.21 7 20.76c0 4.87-42 6.44-42 6.44s-1.06-21.15-1.4-34 6.4-48.47 17.81-45.51z" fill="#68e1fd"/><path d="m143.82 138a.45.45 0 0 1 -.16 0 .5.5 0 0 1 -.34-.47c-.1-.47-1.22-3.11-2.2-5.45-1.41-3.33-2.87-6.78-3.1-7.81s.2-9.17.84-19.51c.28-4.53.52-8.44.56-9.92a55 55 0 0 0 -.95-9.42.5.5 0 0 1 1-.19 54.09 54.09 0 0 1 1 9.63c0 1.5-.28 5.42-.56 10-.48 7.64-1.13 18.1-.87 19.23.22.94 1.72 4.5 3 7.64 2.38 5.65 2.36 5.71 2.26 6a.52.52 0 0 1 -.48.27z" fill="#231f20"/><path d="m118.62 66.51a11 11 0 0 0 -4.09-1.65 13.18 13.18 0 0 0 -9.53 2.71c-3.91 2.72-8.07 5.94-9.07 10.6a10.07 10.07 0 0 0 5.77 11 4.27 4.27 0 0 0 2.35.41c1.53-.24 2.55-1.63 3.6-2.77 2.73-3 5.21-3.53 9-3.92a50.74 50.74 0 0 1 7.08-.36c4.85.18 9.57 1.58 14.37 2.32 3 .46 1.74-2.68.53-3.81-2-1.87-4.09-3.64-6.24-5.33a119.77 119.77 0 0 0 -13.77-9.2z" fill="#68e1fd"/><path d="m180.87 145c-.06.27-.34.4-.59.51-3 1.22-6.43 1.79-9.49.71-3.6-1.27-5.51-4.49-9.12-5.6-1.31-.4-2.61-.77-3.92-1.13-1.88-.52-3.77-1-5.66-1.51-5.34-1.41-11.89-2.27-16.75-5-4-2.29-15.33-22-18.47-30.29s6.57-13.14 6.57-13.14c5.23-4.38 19 31.83 19 31.83l19.78 9.31 4.1 1.92a14.43 14.43 0 0 0 2.58 1.15c2.07.51 4.64-.45 6.65-.88a2.29 2.29 0 0 1 .86-.08 2.37 2.37 0 0 1 .59.18 10.25 10.25 0 0 1 2.39 1.3 3.43 3.43 0 0 1 1.35 2.28l-2.82-.07c-2.17-.06-3.07 2.59-2 4.33s3.77 1.94 4.81 3.71a.85.85 0 0 1 .14.47z" fill="#fff"/><path d="m174.29 147.25a11.06 11.06 0 0 1 -3.67-.6 15.84 15.84 0 0 1 -4.6-2.86 13.62 13.62 0 0 0 -4.5-2.74c-1.3-.39-2.59-.76-3.9-1.12-1.75-.48-3.52-.94-5.28-1.41l-.38-.09c-1.41-.38-2.88-.71-4.44-1.06-4.32-1-8.8-2-12.43-4-4.09-2.37-15.51-22.2-18.69-30.58s6-13.32 6.77-13.74a2 2 0 0 1 1.83-.37c2.61.68 6.43 6.37 11.35 16.92 3.31 7.09 6 14.11 6.52 15.34l19.59 9.21 4.1 1.93.67.33a8.52 8.52 0 0 0 1.82.78c1.49.37 3.36-.11 5-.53.49-.13 1-.25 1.41-.35a2.92 2.92 0 0 1 1.05-.09 3.2 3.2 0 0 1 .7.22 10.09 10.09 0 0 1 2.51 1.37 3.88 3.88 0 0 1 1.54 2.63.48.48 0 0 1 -.13.39.5.5 0 0 1 -.38.15l-2.82-.07a1.72 1.72 0 0 0 -1.61.91 2.66 2.66 0 0 0 0 2.66 5.12 5.12 0 0 0 2.2 1.66 5.81 5.81 0 0 1 2.61 2.06 1.27 1.27 0 0 1 .19.84 1.31 1.31 0 0 1 -.87.86 16.73 16.73 0 0 1 -6.16 1.35zm-49.87-57.65a1 1 0 0 0 -.65.25l-.1.07c-.38.19-9.28 4.75-6.33 12.52 3.06 8.06 14.4 27.82 18.25 30 3.5 2 7.9 3 12.15 3.94 1.57.35 3 .68 4.48 1.06l.37.1c1.77.46 3.54.92 5.3 1.41 1.31.36 2.62.73 3.92 1.13a14.51 14.51 0 0 1 4.84 2.91 14.48 14.48 0 0 0 4.35 2.71c3.28 1.17 6.78.27 9.13-.69a1 1 0 0 0 .28-.16 1.65 1.65 0 0 0 -.08-.17 5 5 0 0 0 -2.23-1.68 6 6 0 0 1 -2.6-2 3.72 3.72 0 0 1 0-3.68 2.73 2.73 0 0 1 2.51-1.41l2.17.06a3.2 3.2 0 0 0 -1-1.38 9.06 9.06 0 0 0 -2.27-1.23 2.24 2.24 0 0 0 -.46-.15 1.91 1.91 0 0 0 -.69.08c-.43.09-.89.21-1.37.33-1.76.46-3.76 1-5.5.55a10.6 10.6 0 0 1 -2-.87l-.64-.32-4.25-1.92-19.78-9.3a.55.55 0 0 1 -.26-.28c-3.21-8.44-12.58-30.62-17.26-31.83a1.25 1.25 0 0 0 -.28-.05z" fill="#231f20"/><path d="m162.25 130.61-4.5 8.84c-1.88-.52-3.77-1-5.66-1.51-5.34-1.41-11.89-2.27-16.75-5-4-2.29-14.2-15-19.1-25.22-6-12.62 8-21.15 8-21.15 5.23-4.39 18.24 34.77 18.24 34.77z" fill="#231f20"/><path d="m157.75 140h-.13c-1.75-.48-3.52-1-5.28-1.41l-.37-.1c-1.42-.37-2.89-.7-4.45-1-4.32-1-8.8-2-12.43-4-4.2-2.4-14.51-15.41-19.3-25.44-2.54-5.33-1.93-10.8 1.79-15.81a25 25 0 0 1 6.39-6 1.85 1.85 0 0 1 1.72-.33c1 .27 3.87 1.1 11 18.44 3.17 7.74 5.78 15.4 6.23 16.74l19.58 9.2a.53.53 0 0 1 .26.29.48.48 0 0 1 0 .39l-4.5 8.84a.51.51 0 0 1 -.51.19zm-32.63-53.32a.86.86 0 0 0 -.57.23 24.56 24.56 0 0 0 -6.19 5.78c-3.52 4.76-4.08 9.73-1.67 14.77 5.07 10.61 15.21 22.9 18.9 25 3.5 2 7.9 3 12.15 3.94 1.57.35 3 .68 4.48 1.06l.37.1c1.64.43 3.28.86 4.9 1.3l4.09-8-19.32-9.08a.51.51 0 0 1 -.26-.3c-3.07-9.22-12-33.44-16.58-34.73a1.17 1.17 0 0 0 -.3-.07z" fill="#231f20"/><path d="m125.93 181.54a.49.49 0 0 1 -.37-.16c-4.78-5.22-15.83-23.14-16.29-23.9a.49.49 0 0 1 .16-.69.5.5 0 0 1 .68.16c.12.19 11.47 18.61 16.19 23.76a.5.5 0 0 1 -.37.83z" fill="#fff"/><path d="m109.69 85.52a.5.5 0 0 1 -.25-.93c.56-.33 13.92-8 22.37-4.69a.51.51 0 0 1 .28.65.5.5 0 0 1 -.65.28c-8-3.15-21.37 4.54-21.5 4.62a.45.45 0 0 1 -.25.07z" fill="#231f20"/></svg>