<svg height="64" viewBox="0 0 64 64" width="64" xmlns="http://www.w3.org/2000/svg"
    xmlns:xlink="http://www.w3.org/1999/xlink">
    <defs>
        <path id="a"
            d="m32.1527818 47.6446499c-1.4650909-.7702439-3.8391589-.7709345-5.3055636 0l-13.2096718 6.9447355c-1.465091.7702439-2.426204.0735996-2.1461456-1.559266l2.5228228-14.7091858c.2798075-1.6314027-.453163-3.889489-1.6395093-5.0458908l-10.686849-10.4171032c-1.18528346-1.1553659-.81973564-2.2847136.81975467-2.5229455l14.76886203-2.1460412c1.6380215-.2380185 3.5590888-1.6329018 4.2922912-3.1185321l6.6048359-13.38285928c.7325455-1.48429924 1.9195795-1.48563023 2.6527818 0l6.6048359 13.38285928c.7325455 1.4842993 2.6528008 2.8803002 4.2922912 3.1185321l14.768862 2.1460412c1.6380215.2380185 2.006101 1.3665436.8197547 2.5229455l-10.686849 10.4171032c-1.1852835 1.1553658-1.9195677 3.4130252-1.6395093 5.0458908l2.5228228 14.7091858c.2798075 1.6314027-.6797409 2.3302006-2.1461456 1.559266z" />
        <mask id="b" fill="#fff">
            <use fill="#fff" fill-rule="evenodd" xlink:href="#a" />
        </mask>
    </defs>
    <g fill="none" fill-rule="evenodd" transform="translate(3 5)">
        <use fill="#ffaf40" xlink:href="#a" />
        <path d="m30-2h41v64h-41z" fill="#ffdd95" mask="url(#b)" />
    </g>
</svg>