<svg clip-rule="evenodd" fill-rule="evenodd" height="6.82666in" image-rendering="optimizeQuality" shape-rendering="geometricPrecision" text-rendering="geometricPrecision" viewBox="0 0 6.82666 6.82666" width="6.82666in" xmlns="http://www.w3.org/2000/svg"><g fill="#333" fill-rule="nonzero"><path d="m3.33975 2.13846c.393858 0 .750445.159654 1.00856.417768.258114.258114.417768.614701.417768 1.00856 0 .393858-.159654.750445-.417768 1.00856-.258114.258114-.614701.417768-1.00856.417768-.393858 0-.750445-.159654-1.00856-.417768-.258114-.258114-.417768-.614701-.417768-1.00856 0-.393858.159654-.750445.417768-1.00856.258114-.258114.614701-.417768 1.00856-.417768zm.895433.530894c-.229154-.229154-.54574-.370894-.895433-.370894s-.66628.14174-.895433.370894c-.229154.229154-.370894.54574-.370894.895433s.14174.66628.370894.895433c.229154.229154.54574.370894.895433.370894s.66628-.14174.895433-.370894c.229154-.229154.370894-.54574.370894-.895433s-.14174-.66628-.370894-.895433z"/><path d="m3.33975 2.46595c.303429 0 .578142.123.776992.32185s.32185.473563.32185.776992-.123.578146-.32185.776996-.473563.32185-.776992.32185-.578146-.123-.776996-.32185-.32185-.473567-.32185-.776996.123-.578142.32185-.776992.473567-.32185.776996-.32185zm.663866.434976c-.16989-.16989-.404606-.274976-.663866-.274976s-.49398.105087-.66387.274976c-.16989.16989-.274976.404606-.274976.663866s.105087.49398.274976.66387c.16989.16989.40461.274976.66387.274976s.493976-.105087.663866-.274976c.16989-.16989.274976-.40461.274976-.66387s-.105087-.493976-.274976-.663866z"/><path d="m5.05039 4.86939c.0340984-.322681.0474213-.957803.0523543-1.19316l.00025591-.0122008c.00304331-.144787.00260236-.295421.00216142-.44772-.00214173-.735169-.0043937-1.50833.380161-1.84459l.0525.06-.0526614-.0602244c.0332598-.0290827.0838031-.0256969.112886.00756299.00750787.00858661.0128465.0183268.0160709.0285512l.213256.519965-.073752.030311.0740157-.0303583c.00427953.0104331.00618898.0212441.00598425.0318425v1.70617 1.21241c0 .183622.0297244.275315.0821378.437004.00572835.0176811.0117283.0361693.0179646.0556417l-.075937.024374.076185-.0244094c.0134803.0420748-.00970079.0871142-.0517756.100594-.00867717.00277953-.0174803.00399606-.0261102.00381496h-.918528c-.0441811 0-.08-.0358189-.08-.08 0-.0166614.00509449-.0321339.013811-.0449449.0550787-.0948504.0952559-.165823.123016-.235488.027815-.0697795.0452087-.142846.0560039-.245138zm.211732-1.19004c-.00498425.237776-.0184409.879417-.0529843 1.20629-.0124291.117783-.0331457.203638-.066626.287634-.0188583.0473307-.0411024.0925591-.0677677.141685h.673402c-.0477717-.149063-.0745236-.249417-.0745236-.43702v-1.21241-1.69257l-.162287-.395697c-.250547.331303-.248654 1.00021-.246795 1.63905.00044488.153681.0008937.305677-.00216142.450846l-.00025591.0122008z"/><path d="m5.89333 4.21853c.0441811 0 .08-.0358189.08-.08s-.0358189-.08-.08-.08h-.900535c-.0441811 0-.08.0358189-.08.08s.0358189.08.08.08z"/><path d="m1.93622 1.43311c0-.0441811-.0358189-.08-.08-.08s-.08.0358189-.08.08v.893665c0 .087752-.0144606.162669-.0394921.225031-.0257402.0641299-.0626772.115425-.106374.153961-.304012.19339-.217657 1.53789-.168732 2.29926.0078189.121677.0146654.228213.0188228.309929h-.171319c.00362598-.0711181.00930709-.163638.0158425-.269972.0456496-.742571.132016-2.14839-.162291-2.33628-.0446535-.0384055-.0824646-.0899173-.108807-.154598-.0256772-.0630512-.0405433-.13876-.0405433-.227331v-.893665c0-.0441811-.0358189-.08-.08-.08s-.08.0358189-.08.08v.893665c0 .109953.0192205.205815.0524173.287331.0366299.089937.0902047.162217.153972.216724.00529528.00507087.011378.0095.0181929.0130827l.00008268-.00015354c.215366.113421.131598 1.47606.0875984 2.19185-.00904724.147193-.0164409.267457-.0191457.350122-.00035039.00302756-.0005315.0061063-.0005315.00922835 0 .0441811.0358189.08.08.08h.337713v-.00000394c.00080709 0 .00161024-.00000787.00241732-.0000315.0441614-.00133465.0788819-.0382205.0775472-.0823819l-.00028347.00000787c-.00288583-.0953701-.011689-.232256-.0223071-.39752-.0469094-.729961-.129957-2.02285.0919213-2.15313.00619685-.00296457.0121181-.00678346.0175827-.0114685l-.0001378-.00015748c.0641693-.0550472.117972-.12811.154488-.219087.0325551-.0811142.0513661-.176016.0513661-.284409v-.893665z"/><path d="m1.29844 1.43311c0-.0441811-.0358189-.08-.08-.08s-.08.0358189-.08.08v1.05216c0 .0441811.0358189.08.08.08s.08-.0358189.08-.08z"/><path d="m1.65111 1.43311c0-.0441811-.0358189-.08-.08-.08s-.08.0358189-.08.08v1.05216c0 .0441811.0358189.08.08.08s.08-.0358189.08-.08z"/></g><path d="m4.11674 2.7878c.19885.19885.32185.473563.32185.776992s-.123.578146-.32185.776996-.473563.32185-.776992.32185-.578146-.123-.776996-.32185-.32185-.473567-.32185-.776996.123-.578142.32185-.776992.473567-.32185.776996-.32185.578142.123.776992.32185zm-.776992-.489335c-.349693 0-.66628.14174-.895433.370894-.229154.229154-.370894.54574-.370894.895433s.14174.66628.370894.895433c.229154.229154.54574.370894.895433.370894s.66628-.14174.895433-.370894c.229154-.229154.370894-.54574.370894-.895433s-.14174-.66628-.370894-.895433c-.229154-.229154-.54574-.370894-.895433-.370894z" fill="#9dd5c0"/><path d="m4.27859 3.56479c0-.25926-.105087-.493976-.274976-.663866-.16989-.16989-.404606-.274976-.663866-.274976s-.49398.105087-.66387.274976c-.16989.16989-.274976.404606-.274976.663866s.105087.49398.274976.66387c.16989.16989.40461.274976.66387.274976s.493976-.105087.663866-.274976c.16989-.16989.274976-.40461.274976-.66387z" fill="#9dd5c0"/><path d="m5.26454 3.2163c.00044488.153681.0008937.305677-.00216142.450846l-.00025591.0122008c-.00179134.0853976-.00467323.222886-.00923228.379177h.420732v-.393-1.69257l-.162287-.395697c-.250547.331303-.248654 1.00021-.246795 1.63905z" fill="#ebe5df"/><path d="m5.67363 4.21853h-.425827c-.00833465.239988-.020622.496453-.0386575.66711-.0124291.117783-.0331457.203638-.066626.287634-.0188583.0473307-.0411024.0925591-.0677677.141685h.673402c-.0477717-.149063-.0745236-.249417-.0745236-.43702v-.659409z" fill="#f19a7b"/><path d="m1.57111 1.35311c.0441811 0 .08.0358189.08.08v1.05216c0 .0441811-.0358189.08-.08.08s-.08-.0358189-.08-.08v-1.05216c0-.0441811.0358189-.08.08-.08zm-.352669 0c.0441811 0 .08.0358189.08.08v1.05216c0 .0441811-.0358189.08-.08.08s-.08-.0358189-.08-.08v-1.05216c0-.0441811.0358189-.08.08-.08zm-.28511 0c.0441811 0 .08.0358189.08.08v.893665c0 .0885709.0148661.16428.0405433.227331.0263425.0646811.0641535.116193.108807.154598.294307.18789.207941 1.59371.162291 2.33628-.00653543.106335-.0122165.198854-.0158425.269972h.171319c-.00415748-.0817165-.0110039-.188252-.0188228-.309929-.0489252-.76137-.13528-2.10587.168732-2.29926.0436969-.0385354.0806339-.0898307.106374-.153961.0250315-.0623622.0394921-.13728.0394921-.225031v-.893665c0-.0441811.0358189-.08.08-.08h-.285114-.352669-.28511z" fill="#ebe5df"/><path d="m0 0h6.82666v6.82666h-6.82666z" fill="none"/></svg>