<svg height="64" viewBox="0 0 64 64" width="64" xmlns="http://www.w3.org/2000/svg"><g fill="none" fill-rule="evenodd"><path d="m32 26v-4" stroke="#5ea7ff" stroke-linecap="square" stroke-width="2"/><path d="m61 54c0-16.0162577-12.9837423-29-29-29s-29 12.9837423-29 29z" fill="#325aa6"/><path d="m32 30c-9.4120361 0-17.5586518 5.4179091-21.4912342 13.3051145" stroke="#b4dffb" stroke-linecap="round" stroke-width="2"/><rect fill="#5ea7ff" height="5" rx="2.5" width="64" y="54"/><path d="m28 20h8v3h-8z" fill="#325aa6"/><path d="m47.2333333 3c-3.4425749 0-6.2333333 2.07820713-6.2333333 6.2962963 0 4.2180892 9.4111111 13.7037037 11 13.7037037s11-9.4856145 11-13.7037037c0-4.21808917-2.7907584-6.2962963-6.2333333-6.2962963-1.912171 0-3.6232421.86970846-4.7666667 2.2388765-1.1434246-1.36916804-2.8544957-2.2388765-4.7666667-2.2388765z" fill="#e43535"/></g></svg>